<svg height="512" viewBox="0 0 64 64" width="512" xmlns="http://www.w3.org/2000/svg"><g id="Filled_outline" data-name="Filled outline"><path d="m3 7h58v50h-58z" fill="#7d8d9c"/><path d="m25 16h14v14h-14z" fill="#ffd782"/><path d="m28 19h2v2h-2z" fill="#394d5c"/><path d="m34 19h2v2h-2z" fill="#394d5c"/><path d="m35 27a1 1 0 0 1 -.707-.293 3.1 3.1 0 0 0 -4.586 0 1 1 0 0 1 -1.414-1.414 5.055 5.055 0 0 1 7.414 0 1 1 0 0 1 -.707 1.707z" fill="#394d5c"/><path d="m25 34h14v23h-14z" fill="#f4f4e6"/><path d="m25 12h14v4h-14z" fill="#394d5c"/><path d="m3 3h58v4h-58z" fill="#195c85"/><path d="m3 57h58v4h-58z" fill="#195c85"/><g fill="#87cee9"><path d="m10 7h4v50h-4z"/><path d="m21 7h4v50h-4z"/><path d="m39 7h4v50h-4z"/><path d="m50 7h4v50h-4z"/></g><path d="m28 34 4 5 4-5z" fill="#ffd782"/><path d="m25 41h14v2h-14z" fill="#394d5c"/><path d="m25 46h14v2h-14z" fill="#394d5c"/><path d="m25 51h14v2h-14z" fill="#394d5c"/><path d="m19 30h6v8h-6z" fill="#ffd782"/><path d="m39 30h6v8h-6z" fill="#ffd782"/><path d="m28 19h2v2h-2z"/><path d="m34 19h2v2h-2z"/><path d="m29.707 26.707a3.1 3.1 0 0 1 4.586 0 1 1 0 0 0 1.414-1.414 5.055 5.055 0 0 0 -7.414 0 1 1 0 0 0 1.414 1.414z"/><path d="m61 2h-58a1 1 0 0 0 -1 1v58a1 1 0 0 0 1 1h58a1 1 0 0 0 1-1v-58a1 1 0 0 0 -1-1zm-57 6h5v48h-5zm56 52h-56v-2h56zm-49-4v-48h2v48zm13-25v6h-4v-6zm-2-2v-21h2v21zm2 10v17h-2v-17zm-4-10h-1a1 1 0 0 0 -1 1v8a1 1 0 0 0 1 1h1v17h-5v-48h5zm18-16v2h-12v-2zm-12-2v-3h12v3zm12 6v12h-12v-12zm0 14v2h-12v-2zm-5 22h5v3h-5zm-1-15.6-1.919-2.4h3.838zm1 13.6v-3h5v3zm0-5v-3h5v3zm0-5v-1.649l3.481-4.351h1.519v6zm-5.481-6 3.481 4.351v1.649h-5v-6zm3.481 8v3h-5v-3zm0 5v3h-5v-3zm0 5v3h-5v-3zm13-22v6h-4v-6zm-4-2v-21h2v21zm5 0h-1v-21h5v48h-5v-17h1a1 1 0 0 0 1-1v-8a1 1 0 0 0 -1-1zm-3 10v17h-2v-17zm9 17v-48h2v48zm9 0h-5v-48h5zm0-50h-56v-2h56z"/></g></svg>